<mxfile host="app.diagrams.net" agent="Mozilla/5.0 (Windows NT 10.0; Win64; x64) AppleWebKit/537.36 (KHTML, like Gecko) Chrome/132.0.0.0 Safari/537.36 OPR/117.0.0.0" version="26.1.1">
  <diagram name="Страница — 1" id="fqhx1KdsKReFU8F8x3z7">
    <mxGraphModel dx="1380" dy="773" grid="1" gridSize="10" guides="1" tooltips="1" connect="1" arrows="1" fold="1" page="1" pageScale="1" pageWidth="827" pageHeight="1169" math="0" shadow="0">
      <root>
        <mxCell id="0" />
        <mxCell id="1" parent="0" />
        <mxCell id="7Y5YvEiYkqr1PFVsgEZW-2" value="" style="swimlane;startSize=0;" vertex="1" parent="1">
          <mxGeometry x="80" y="100" width="310" height="520" as="geometry" />
        </mxCell>
        <mxCell id="7Y5YvEiYkqr1PFVsgEZW-3" value="" style="swimlane;startSize=0;" vertex="1" parent="7Y5YvEiYkqr1PFVsgEZW-2">
          <mxGeometry y="460" width="310" height="60" as="geometry" />
        </mxCell>
        <mxCell id="7Y5YvEiYkqr1PFVsgEZW-26" style="edgeStyle=orthogonalEdgeStyle;rounded=0;orthogonalLoop=1;jettySize=auto;html=1;exitX=0.5;exitY=1;exitDx=0;exitDy=0;" edge="1" parent="7Y5YvEiYkqr1PFVsgEZW-3" source="7Y5YvEiYkqr1PFVsgEZW-9">
          <mxGeometry relative="1" as="geometry">
            <mxPoint x="30" y="200" as="targetPoint" />
          </mxGeometry>
        </mxCell>
        <mxCell id="7Y5YvEiYkqr1PFVsgEZW-9" value="" style="ellipse;whiteSpace=wrap;html=1;aspect=fixed;" vertex="1" parent="7Y5YvEiYkqr1PFVsgEZW-3">
          <mxGeometry x="10" y="10" width="40" height="40" as="geometry" />
        </mxCell>
        <mxCell id="7Y5YvEiYkqr1PFVsgEZW-10" value="" style="ellipse;whiteSpace=wrap;html=1;aspect=fixed;" vertex="1" parent="7Y5YvEiYkqr1PFVsgEZW-3">
          <mxGeometry x="70" y="10" width="40" height="40" as="geometry" />
        </mxCell>
        <mxCell id="7Y5YvEiYkqr1PFVsgEZW-11" value="" style="ellipse;whiteSpace=wrap;html=1;aspect=fixed;" vertex="1" parent="7Y5YvEiYkqr1PFVsgEZW-3">
          <mxGeometry x="135" y="10" width="40" height="40" as="geometry" />
        </mxCell>
        <mxCell id="7Y5YvEiYkqr1PFVsgEZW-32" style="edgeStyle=orthogonalEdgeStyle;rounded=0;orthogonalLoop=1;jettySize=auto;html=1;exitX=0.5;exitY=1;exitDx=0;exitDy=0;" edge="1" parent="7Y5YvEiYkqr1PFVsgEZW-3" source="7Y5YvEiYkqr1PFVsgEZW-12">
          <mxGeometry relative="1" as="geometry">
            <mxPoint x="220" y="120" as="targetPoint" />
          </mxGeometry>
        </mxCell>
        <mxCell id="7Y5YvEiYkqr1PFVsgEZW-12" value="" style="ellipse;whiteSpace=wrap;html=1;aspect=fixed;" vertex="1" parent="7Y5YvEiYkqr1PFVsgEZW-3">
          <mxGeometry x="200" y="10" width="40" height="40" as="geometry" />
        </mxCell>
        <mxCell id="7Y5YvEiYkqr1PFVsgEZW-13" value="" style="ellipse;whiteSpace=wrap;html=1;aspect=fixed;" vertex="1" parent="7Y5YvEiYkqr1PFVsgEZW-3">
          <mxGeometry x="260" y="10" width="40" height="40" as="geometry" />
        </mxCell>
        <mxCell id="7Y5YvEiYkqr1PFVsgEZW-6" value="" style="swimlane;startSize=0;" vertex="1" parent="7Y5YvEiYkqr1PFVsgEZW-2">
          <mxGeometry x="300" y="200" width="10" height="70" as="geometry" />
        </mxCell>
        <mxCell id="7Y5YvEiYkqr1PFVsgEZW-47" value="" style="rhombus;whiteSpace=wrap;html=1;" vertex="1" parent="7Y5YvEiYkqr1PFVsgEZW-2">
          <mxGeometry x="115" y="195" width="80" height="80" as="geometry" />
        </mxCell>
        <mxCell id="7Y5YvEiYkqr1PFVsgEZW-48" value="дайс" style="text;html=1;align=center;verticalAlign=middle;whiteSpace=wrap;rounded=0;" vertex="1" parent="7Y5YvEiYkqr1PFVsgEZW-2">
          <mxGeometry x="125" y="220" width="60" height="30" as="geometry" />
        </mxCell>
        <mxCell id="7Y5YvEiYkqr1PFVsgEZW-49" value="" style="rounded=1;whiteSpace=wrap;html=1;" vertex="1" parent="7Y5YvEiYkqr1PFVsgEZW-2">
          <mxGeometry x="180" y="410" width="120" height="40" as="geometry" />
        </mxCell>
        <mxCell id="7Y5YvEiYkqr1PFVsgEZW-50" value="інструкція" style="text;html=1;align=center;verticalAlign=middle;whiteSpace=wrap;rounded=0;" vertex="1" parent="7Y5YvEiYkqr1PFVsgEZW-2">
          <mxGeometry x="210" y="415" width="60" height="30" as="geometry" />
        </mxCell>
        <mxCell id="7Y5YvEiYkqr1PFVsgEZW-51" value="" style="ellipse;whiteSpace=wrap;html=1;aspect=fixed;" vertex="1" parent="7Y5YvEiYkqr1PFVsgEZW-2">
          <mxGeometry x="10" y="420" width="30" height="30" as="geometry" />
        </mxCell>
        <mxCell id="7Y5YvEiYkqr1PFVsgEZW-4" value="" style="swimlane;startSize=0;" vertex="1" parent="1">
          <mxGeometry x="450" y="100" width="310" height="520" as="geometry" />
        </mxCell>
        <mxCell id="7Y5YvEiYkqr1PFVsgEZW-5" value="" style="swimlane;startSize=0;" vertex="1" parent="7Y5YvEiYkqr1PFVsgEZW-4">
          <mxGeometry y="460" width="310" height="60" as="geometry" />
        </mxCell>
        <mxCell id="7Y5YvEiYkqr1PFVsgEZW-21" value="" style="ellipse;whiteSpace=wrap;html=1;aspect=fixed;" vertex="1" parent="7Y5YvEiYkqr1PFVsgEZW-5">
          <mxGeometry x="10" y="10" width="40" height="40" as="geometry" />
        </mxCell>
        <mxCell id="7Y5YvEiYkqr1PFVsgEZW-22" value="" style="ellipse;whiteSpace=wrap;html=1;aspect=fixed;" vertex="1" parent="7Y5YvEiYkqr1PFVsgEZW-5">
          <mxGeometry x="70" y="10" width="40" height="40" as="geometry" />
        </mxCell>
        <mxCell id="7Y5YvEiYkqr1PFVsgEZW-23" value="" style="ellipse;whiteSpace=wrap;html=1;aspect=fixed;" vertex="1" parent="7Y5YvEiYkqr1PFVsgEZW-5">
          <mxGeometry x="135" y="10" width="40" height="40" as="geometry" />
        </mxCell>
        <mxCell id="7Y5YvEiYkqr1PFVsgEZW-24" value="" style="ellipse;whiteSpace=wrap;html=1;aspect=fixed;" vertex="1" parent="7Y5YvEiYkqr1PFVsgEZW-5">
          <mxGeometry x="200" y="10" width="40" height="40" as="geometry" />
        </mxCell>
        <mxCell id="7Y5YvEiYkqr1PFVsgEZW-25" value="" style="ellipse;whiteSpace=wrap;html=1;aspect=fixed;" vertex="1" parent="7Y5YvEiYkqr1PFVsgEZW-5">
          <mxGeometry x="260" y="10" width="40" height="40" as="geometry" />
        </mxCell>
        <mxCell id="7Y5YvEiYkqr1PFVsgEZW-7" value="" style="swimlane;startSize=0;" vertex="1" parent="7Y5YvEiYkqr1PFVsgEZW-4">
          <mxGeometry x="140" y="200" width="10" height="70" as="geometry" />
        </mxCell>
        <mxCell id="7Y5YvEiYkqr1PFVsgEZW-8" value="" style="swimlane;startSize=0;" vertex="1" parent="1">
          <mxGeometry x="600" y="100" width="160" height="460" as="geometry" />
        </mxCell>
        <mxCell id="7Y5YvEiYkqr1PFVsgEZW-37" value="" style="rounded=1;whiteSpace=wrap;html=1;" vertex="1" parent="7Y5YvEiYkqr1PFVsgEZW-8">
          <mxGeometry x="20" y="20" width="120" height="60" as="geometry" />
        </mxCell>
        <mxCell id="7Y5YvEiYkqr1PFVsgEZW-38" value="" style="rounded=1;whiteSpace=wrap;html=1;" vertex="1" parent="7Y5YvEiYkqr1PFVsgEZW-8">
          <mxGeometry x="20" y="100" width="120" height="60" as="geometry" />
        </mxCell>
        <mxCell id="7Y5YvEiYkqr1PFVsgEZW-39" value="" style="rounded=1;whiteSpace=wrap;html=1;" vertex="1" parent="7Y5YvEiYkqr1PFVsgEZW-8">
          <mxGeometry x="20" y="180" width="120" height="60" as="geometry" />
        </mxCell>
        <mxCell id="7Y5YvEiYkqr1PFVsgEZW-40" value="" style="rounded=1;whiteSpace=wrap;html=1;" vertex="1" parent="7Y5YvEiYkqr1PFVsgEZW-8">
          <mxGeometry x="20" y="260" width="120" height="60" as="geometry" />
        </mxCell>
        <mxCell id="7Y5YvEiYkqr1PFVsgEZW-41" value="таблиця" style="text;html=1;align=center;verticalAlign=middle;whiteSpace=wrap;rounded=0;" vertex="1" parent="7Y5YvEiYkqr1PFVsgEZW-8">
          <mxGeometry x="50" y="35" width="60" height="30" as="geometry" />
        </mxCell>
        <mxCell id="7Y5YvEiYkqr1PFVsgEZW-42" value="таблиця" style="text;html=1;align=center;verticalAlign=middle;whiteSpace=wrap;rounded=0;" vertex="1" parent="7Y5YvEiYkqr1PFVsgEZW-8">
          <mxGeometry x="50" y="115" width="60" height="30" as="geometry" />
        </mxCell>
        <mxCell id="7Y5YvEiYkqr1PFVsgEZW-43" value="таблиця" style="text;html=1;align=center;verticalAlign=middle;whiteSpace=wrap;rounded=0;" vertex="1" parent="7Y5YvEiYkqr1PFVsgEZW-8">
          <mxGeometry x="50" y="195" width="60" height="30" as="geometry" />
        </mxCell>
        <mxCell id="7Y5YvEiYkqr1PFVsgEZW-44" value="таблиця" style="text;html=1;align=center;verticalAlign=middle;whiteSpace=wrap;rounded=0;" vertex="1" parent="7Y5YvEiYkqr1PFVsgEZW-8">
          <mxGeometry x="50" y="275" width="60" height="30" as="geometry" />
        </mxCell>
        <mxCell id="7Y5YvEiYkqr1PFVsgEZW-45" value="" style="rounded=0;whiteSpace=wrap;html=1;" vertex="1" parent="7Y5YvEiYkqr1PFVsgEZW-8">
          <mxGeometry x="150" width="10" height="460" as="geometry" />
        </mxCell>
        <mxCell id="7Y5YvEiYkqr1PFVsgEZW-46" value="" style="rounded=0;whiteSpace=wrap;html=1;strokeColor=default;fillColor=#000000;" vertex="1" parent="7Y5YvEiYkqr1PFVsgEZW-8">
          <mxGeometry x="150" width="10" height="60" as="geometry" />
        </mxCell>
        <mxCell id="7Y5YvEiYkqr1PFVsgEZW-27" value="створення персонажа" style="text;html=1;align=center;verticalAlign=middle;whiteSpace=wrap;rounded=0;" vertex="1" parent="1">
          <mxGeometry x="80" y="760" width="60" height="30" as="geometry" />
        </mxCell>
        <mxCell id="7Y5YvEiYkqr1PFVsgEZW-29" value="тільки катафракт" style="text;html=1;align=center;verticalAlign=middle;whiteSpace=wrap;rounded=0;" vertex="1" parent="1">
          <mxGeometry x="140" y="795" width="60" height="30" as="geometry" />
        </mxCell>
        <mxCell id="7Y5YvEiYkqr1PFVsgEZW-28" style="edgeStyle=orthogonalEdgeStyle;rounded=0;orthogonalLoop=1;jettySize=auto;html=1;exitX=0.5;exitY=1;exitDx=0;exitDy=0;" edge="1" parent="1" source="7Y5YvEiYkqr1PFVsgEZW-10" target="7Y5YvEiYkqr1PFVsgEZW-29">
          <mxGeometry relative="1" as="geometry">
            <mxPoint x="170" y="810" as="targetPoint" />
          </mxGeometry>
        </mxCell>
        <mxCell id="7Y5YvEiYkqr1PFVsgEZW-31" value="створення світу" style="text;html=1;align=center;verticalAlign=middle;whiteSpace=wrap;rounded=0;" vertex="1" parent="1">
          <mxGeometry x="205" y="745" width="60" height="30" as="geometry" />
        </mxCell>
        <mxCell id="7Y5YvEiYkqr1PFVsgEZW-30" style="edgeStyle=orthogonalEdgeStyle;rounded=0;orthogonalLoop=1;jettySize=auto;html=1;exitX=0.5;exitY=1;exitDx=0;exitDy=0;" edge="1" parent="1" source="7Y5YvEiYkqr1PFVsgEZW-11" target="7Y5YvEiYkqr1PFVsgEZW-31">
          <mxGeometry relative="1" as="geometry">
            <mxPoint x="235" y="760" as="targetPoint" />
          </mxGeometry>
        </mxCell>
        <mxCell id="7Y5YvEiYkqr1PFVsgEZW-33" style="edgeStyle=orthogonalEdgeStyle;rounded=0;orthogonalLoop=1;jettySize=auto;html=1;exitX=0.5;exitY=1;exitDx=0;exitDy=0;" edge="1" parent="1" source="7Y5YvEiYkqr1PFVsgEZW-13">
          <mxGeometry relative="1" as="geometry">
            <mxPoint x="360" y="680" as="targetPoint" />
          </mxGeometry>
        </mxCell>
        <mxCell id="7Y5YvEiYkqr1PFVsgEZW-35" value="кастомний набір" style="text;html=1;align=center;verticalAlign=middle;whiteSpace=wrap;rounded=0;" vertex="1" parent="1">
          <mxGeometry x="300" y="690" width="60" height="30" as="geometry" />
        </mxCell>
        <mxCell id="7Y5YvEiYkqr1PFVsgEZW-53" value="історія" style="text;html=1;align=center;verticalAlign=middle;whiteSpace=wrap;rounded=0;" vertex="1" parent="1">
          <mxGeometry y="520" width="60" height="30" as="geometry" />
        </mxCell>
        <mxCell id="7Y5YvEiYkqr1PFVsgEZW-54" value="" style="swimlane;startSize=0;" vertex="1" parent="1">
          <mxGeometry x="450" y="640" width="310" height="520" as="geometry" />
        </mxCell>
        <mxCell id="7Y5YvEiYkqr1PFVsgEZW-55" value="" style="swimlane;startSize=0;" vertex="1" parent="7Y5YvEiYkqr1PFVsgEZW-54">
          <mxGeometry y="460" width="310" height="60" as="geometry" />
        </mxCell>
        <mxCell id="7Y5YvEiYkqr1PFVsgEZW-57" value="" style="ellipse;whiteSpace=wrap;html=1;aspect=fixed;" vertex="1" parent="7Y5YvEiYkqr1PFVsgEZW-55">
          <mxGeometry x="10" y="10" width="40" height="40" as="geometry" />
        </mxCell>
        <mxCell id="7Y5YvEiYkqr1PFVsgEZW-58" value="" style="ellipse;whiteSpace=wrap;html=1;aspect=fixed;" vertex="1" parent="7Y5YvEiYkqr1PFVsgEZW-55">
          <mxGeometry x="70" y="10" width="40" height="40" as="geometry" />
        </mxCell>
        <mxCell id="7Y5YvEiYkqr1PFVsgEZW-59" value="" style="ellipse;whiteSpace=wrap;html=1;aspect=fixed;" vertex="1" parent="7Y5YvEiYkqr1PFVsgEZW-55">
          <mxGeometry x="135" y="10" width="40" height="40" as="geometry" />
        </mxCell>
        <mxCell id="7Y5YvEiYkqr1PFVsgEZW-61" value="" style="ellipse;whiteSpace=wrap;html=1;aspect=fixed;" vertex="1" parent="7Y5YvEiYkqr1PFVsgEZW-55">
          <mxGeometry x="200" y="10" width="40" height="40" as="geometry" />
        </mxCell>
        <mxCell id="7Y5YvEiYkqr1PFVsgEZW-62" value="" style="ellipse;whiteSpace=wrap;html=1;aspect=fixed;" vertex="1" parent="7Y5YvEiYkqr1PFVsgEZW-55">
          <mxGeometry x="260" y="10" width="40" height="40" as="geometry" />
        </mxCell>
        <mxCell id="7Y5YvEiYkqr1PFVsgEZW-64" value="" style="rhombus;whiteSpace=wrap;html=1;" vertex="1" parent="7Y5YvEiYkqr1PFVsgEZW-54">
          <mxGeometry x="115" y="370" width="80" height="80" as="geometry" />
        </mxCell>
        <mxCell id="7Y5YvEiYkqr1PFVsgEZW-65" value="дайс" style="text;html=1;align=center;verticalAlign=middle;whiteSpace=wrap;rounded=0;" vertex="1" parent="7Y5YvEiYkqr1PFVsgEZW-54">
          <mxGeometry x="125" y="395" width="60" height="30" as="geometry" />
        </mxCell>
        <mxCell id="7Y5YvEiYkqr1PFVsgEZW-68" value="" style="ellipse;whiteSpace=wrap;html=1;aspect=fixed;" vertex="1" parent="7Y5YvEiYkqr1PFVsgEZW-54">
          <mxGeometry x="10" y="420" width="30" height="30" as="geometry" />
        </mxCell>
        <mxCell id="7Y5YvEiYkqr1PFVsgEZW-70" value="Опис дій" style="text;html=1;align=center;verticalAlign=middle;whiteSpace=wrap;rounded=0;" vertex="1" parent="7Y5YvEiYkqr1PFVsgEZW-54">
          <mxGeometry x="125" y="50" width="60" height="30" as="geometry" />
        </mxCell>
        <mxCell id="7Y5YvEiYkqr1PFVsgEZW-71" value="результат" style="text;html=1;align=center;verticalAlign=middle;whiteSpace=wrap;rounded=0;" vertex="1" parent="7Y5YvEiYkqr1PFVsgEZW-54">
          <mxGeometry x="125" y="130" width="60" height="30" as="geometry" />
        </mxCell>
        <mxCell id="7Y5YvEiYkqr1PFVsgEZW-72" value="" style="triangle;whiteSpace=wrap;html=1;rotation=-180;" vertex="1" parent="7Y5YvEiYkqr1PFVsgEZW-54">
          <mxGeometry x="10" y="10" width="20" height="30" as="geometry" />
        </mxCell>
        <mxCell id="7Y5YvEiYkqr1PFVsgEZW-69" style="edgeStyle=orthogonalEdgeStyle;rounded=0;orthogonalLoop=1;jettySize=auto;html=1;exitX=0;exitY=0.5;exitDx=0;exitDy=0;entryX=1;entryY=0.5;entryDx=0;entryDy=0;" edge="1" parent="1" source="7Y5YvEiYkqr1PFVsgEZW-51" target="7Y5YvEiYkqr1PFVsgEZW-53">
          <mxGeometry relative="1" as="geometry" />
        </mxCell>
        <mxCell id="7Y5YvEiYkqr1PFVsgEZW-89" value="" style="swimlane;startSize=0;" vertex="1" parent="1">
          <mxGeometry x="80" y="840" width="310" height="520" as="geometry" />
        </mxCell>
        <mxCell id="7Y5YvEiYkqr1PFVsgEZW-90" value="" style="swimlane;startSize=0;" vertex="1" parent="7Y5YvEiYkqr1PFVsgEZW-89">
          <mxGeometry y="460" width="310" height="60" as="geometry" />
        </mxCell>
        <mxCell id="7Y5YvEiYkqr1PFVsgEZW-91" value="" style="ellipse;whiteSpace=wrap;html=1;aspect=fixed;" vertex="1" parent="7Y5YvEiYkqr1PFVsgEZW-90">
          <mxGeometry x="10" y="10" width="40" height="40" as="geometry" />
        </mxCell>
        <mxCell id="7Y5YvEiYkqr1PFVsgEZW-92" value="" style="ellipse;whiteSpace=wrap;html=1;aspect=fixed;" vertex="1" parent="7Y5YvEiYkqr1PFVsgEZW-90">
          <mxGeometry x="70" y="10" width="40" height="40" as="geometry" />
        </mxCell>
        <mxCell id="7Y5YvEiYkqr1PFVsgEZW-93" value="" style="ellipse;whiteSpace=wrap;html=1;aspect=fixed;" vertex="1" parent="7Y5YvEiYkqr1PFVsgEZW-90">
          <mxGeometry x="135" y="10" width="40" height="40" as="geometry" />
        </mxCell>
        <mxCell id="7Y5YvEiYkqr1PFVsgEZW-94" value="" style="ellipse;whiteSpace=wrap;html=1;aspect=fixed;" vertex="1" parent="7Y5YvEiYkqr1PFVsgEZW-90">
          <mxGeometry x="200" y="10" width="40" height="40" as="geometry" />
        </mxCell>
        <mxCell id="7Y5YvEiYkqr1PFVsgEZW-95" value="" style="ellipse;whiteSpace=wrap;html=1;aspect=fixed;" vertex="1" parent="7Y5YvEiYkqr1PFVsgEZW-90">
          <mxGeometry x="260" y="10" width="40" height="40" as="geometry" />
        </mxCell>
        <mxCell id="7Y5YvEiYkqr1PFVsgEZW-100" value="Опис дій" style="text;html=1;align=center;verticalAlign=middle;whiteSpace=wrap;rounded=0;" vertex="1" parent="7Y5YvEiYkqr1PFVsgEZW-89">
          <mxGeometry x="125" y="50" width="60" height="30" as="geometry" />
        </mxCell>
        <mxCell id="7Y5YvEiYkqr1PFVsgEZW-102" value="" style="triangle;whiteSpace=wrap;html=1;rotation=-180;" vertex="1" parent="7Y5YvEiYkqr1PFVsgEZW-89">
          <mxGeometry x="10" y="10" width="20" height="30" as="geometry" />
        </mxCell>
        <mxCell id="7Y5YvEiYkqr1PFVsgEZW-103" value="" style="rounded=1;whiteSpace=wrap;html=1;" vertex="1" parent="7Y5YvEiYkqr1PFVsgEZW-89">
          <mxGeometry x="20" y="80" width="260" height="60" as="geometry" />
        </mxCell>
        <mxCell id="7Y5YvEiYkqr1PFVsgEZW-104" value="" style="rounded=1;whiteSpace=wrap;html=1;" vertex="1" parent="7Y5YvEiYkqr1PFVsgEZW-89">
          <mxGeometry x="20" y="160" width="260" height="60" as="geometry" />
        </mxCell>
        <mxCell id="7Y5YvEiYkqr1PFVsgEZW-105" value="" style="rounded=1;whiteSpace=wrap;html=1;" vertex="1" parent="7Y5YvEiYkqr1PFVsgEZW-89">
          <mxGeometry x="20" y="240" width="260" height="60" as="geometry" />
        </mxCell>
        <mxCell id="7Y5YvEiYkqr1PFVsgEZW-107" value="таблиця" style="text;html=1;align=center;verticalAlign=middle;whiteSpace=wrap;rounded=0;" vertex="1" parent="7Y5YvEiYkqr1PFVsgEZW-89">
          <mxGeometry x="50" y="95" width="60" height="30" as="geometry" />
        </mxCell>
        <mxCell id="7Y5YvEiYkqr1PFVsgEZW-108" value="таблиця" style="text;html=1;align=center;verticalAlign=middle;whiteSpace=wrap;rounded=0;" vertex="1" parent="7Y5YvEiYkqr1PFVsgEZW-89">
          <mxGeometry x="50" y="175" width="60" height="30" as="geometry" />
        </mxCell>
        <mxCell id="7Y5YvEiYkqr1PFVsgEZW-109" value="таблиця" style="text;html=1;align=center;verticalAlign=middle;whiteSpace=wrap;rounded=0;" vertex="1" parent="7Y5YvEiYkqr1PFVsgEZW-89">
          <mxGeometry x="50" y="255" width="60" height="30" as="geometry" />
        </mxCell>
        <mxCell id="7Y5YvEiYkqr1PFVsgEZW-114" value="" style="rounded=1;whiteSpace=wrap;html=1;" vertex="1" parent="7Y5YvEiYkqr1PFVsgEZW-89">
          <mxGeometry x="20" y="320" width="260" height="60" as="geometry" />
        </mxCell>
        <mxCell id="7Y5YvEiYkqr1PFVsgEZW-115" value="таблиця" style="text;html=1;align=center;verticalAlign=middle;whiteSpace=wrap;rounded=0;" vertex="1" parent="7Y5YvEiYkqr1PFVsgEZW-89">
          <mxGeometry x="50" y="335" width="60" height="30" as="geometry" />
        </mxCell>
        <mxCell id="7Y5YvEiYkqr1PFVsgEZW-116" value="" style="rounded=1;whiteSpace=wrap;html=1;" vertex="1" parent="7Y5YvEiYkqr1PFVsgEZW-89">
          <mxGeometry x="240" y="92.5" width="30" height="35" as="geometry" />
        </mxCell>
        <mxCell id="7Y5YvEiYkqr1PFVsgEZW-117" value="" style="rounded=1;whiteSpace=wrap;html=1;" vertex="1" parent="7Y5YvEiYkqr1PFVsgEZW-89">
          <mxGeometry x="240" y="172.5" width="30" height="35" as="geometry" />
        </mxCell>
        <mxCell id="7Y5YvEiYkqr1PFVsgEZW-118" value="" style="rounded=1;whiteSpace=wrap;html=1;" vertex="1" parent="7Y5YvEiYkqr1PFVsgEZW-89">
          <mxGeometry x="240" y="252.5" width="30" height="35" as="geometry" />
        </mxCell>
        <mxCell id="7Y5YvEiYkqr1PFVsgEZW-119" value="" style="rounded=1;whiteSpace=wrap;html=1;" vertex="1" parent="7Y5YvEiYkqr1PFVsgEZW-89">
          <mxGeometry x="240" y="332.5" width="30" height="35" as="geometry" />
        </mxCell>
        <mxCell id="7Y5YvEiYkqr1PFVsgEZW-111" value="" style="rounded=0;whiteSpace=wrap;html=1;" vertex="1" parent="1">
          <mxGeometry x="380" y="920" width="10" height="380" as="geometry" />
        </mxCell>
        <mxCell id="7Y5YvEiYkqr1PFVsgEZW-113" value="" style="rounded=0;whiteSpace=wrap;html=1;strokeColor=default;fillColor=#000000;" vertex="1" parent="1">
          <mxGeometry x="380" y="920" width="10" height="60" as="geometry" />
        </mxCell>
        <mxCell id="7Y5YvEiYkqr1PFVsgEZW-120" value="Збереження персонажів, світів, катафрактів&lt;div&gt;кнопка зі збереженними персонажами&lt;/div&gt;&lt;div&gt;екран персонажів...&lt;/div&gt;&lt;div&gt;клавіша &quot;зберегти&quot;&lt;/div&gt;&lt;div&gt;&lt;br&gt;&lt;/div&gt;" style="text;html=1;align=center;verticalAlign=middle;whiteSpace=wrap;rounded=0;" vertex="1" parent="1">
          <mxGeometry x="110" y="1400" width="590" height="120" as="geometry" />
        </mxCell>
      </root>
    </mxGraphModel>
  </diagram>
</mxfile>
